<?xml version="1.0" standalone="no"?>
<!DOCTYPE svg PUBLIC "-//W3C//DTD SVG 20010904//EN"
 "http://www.w3.org/TR/2001/REC-SVG-20010904/DTD/svg10.dtd">
<svg version="1.0" xmlns="http://www.w3.org/2000/svg"
 width="768.000000pt" height="1024.000000pt" viewBox="0 0 768.000000 1024.000000"
 preserveAspectRatio="xMidYMid meet">
<metadata>
Created by potrace 1.16, written by Peter Selinger 2001-2019
</metadata>
<g transform="translate(0.000000,1024.000000) scale(0.100000,-0.100000)"
fill="#000000" stroke="none">
<path d="M5205 10179 c88 -33 297 -115 465 -181 l305 -122 72 -72 c40 -39 77
-84 84 -100 8 -21 9 -122 4 -354 -12 -519 -22 -557 -24 -85 l-1 420 -25 37
c-14 20 -35 40 -47 44 -13 3 -35 15 -51 26 -32 23 -44 22 -447 -37 -129 -19
-241 -35 -248 -35 -8 0 15 -32 50 -70 101 -110 237 -352 296 -525 17 -49 61
-207 97 -350 56 -218 66 -268 60 -310 -12 -96 -130 -375 -203 -482 -50 -71
-159 -195 -204 -230 l-33 -26 -3 -216 c-5 -354 -36 -567 -117 -798 -30 -87
-39 -125 -31 -131 6 -5 45 -23 86 -41 42 -17 88 -42 102 -54 l27 -22 -9 -210
c-5 -115 -15 -249 -21 -297 -6 -48 -9 -126 -7 -173 3 -86 2 -88 -25 -109 -25
-18 -42 -21 -125 -21 -53 0 -128 3 -167 7 -53 5 -63 4 -42 -3 21 -9 27 -17 28
-42 0 -18 4 -41 9 -52 7 -16 9 -14 9 15 2 58 7 61 109 54 89 -7 94 -8 122 -40
35 -40 47 -81 55 -194 16 -210 48 -459 85 -654 54 -289 64 -374 56 -481 -6
-80 -12 -98 -48 -165 -23 -41 -47 -87 -55 -102 -16 -31 -26 -38 -16 -11 4 10
2 14 -4 10 -16 -10 -25 49 -33 218 l-7 150 -1 -205 c0 -113 3 -241 8 -285 6
-44 14 -132 20 -196 5 -64 14 -136 20 -160 6 -24 15 -162 20 -306 4 -144 11
-266 14 -272 4 -5 -3 -33 -13 -63 -30 -81 -72 -320 -79 -443 l-5 -110 -23 80
c-40 140 -93 292 -88 250 l5 -40 -22 33 c-14 21 -25 29 -29 22 -4 -6 -16 -12
-28 -13 -14 -1 -25 -11 -31 -30 -6 -16 -14 -26 -19 -23 -10 6 -22 -110 -22
-218 -1 -96 -24 -267 -41 -296 -21 -34 -72 -79 -91 -80 -9 0 -20 -5 -24 -12
-5 -7 -3 -8 6 -3 9 6 11 4 6 -4 -5 -7 -14 -10 -22 -7 -8 3 -13 1 -11 -4 1 -5
-7 -16 -18 -24 -14 -11 -5 -10 35 5 88 33 100 33 34 1 -73 -36 -253 -143 -303
-180 -98 -74 -349 -267 -371 -286 -13 -11 -19 -14 -13 -5 16 21 10 136 -9 172
l-15 27 -7 -37 c-3 -21 -6 -76 -6 -122 l0 -84 -67 -63 c-38 -35 -70 -64 -73
-64 -3 0 -13 37 -22 83 -88 422 -124 604 -158 796 -22 124 -43 227 -46 230 -4
3 -4 -7 0 -24 3 -16 15 -92 26 -167 32 -223 66 -410 120 -660 51 -241 58 -287
40 -289 -5 -1 -14 -2 -20 -3 -5 0 -15 -8 -22 -18 -14 -18 -107 -78 -121 -78
-4 0 -5 5 -1 12 4 7 3 8 -5 4 -6 -4 -8 -12 -5 -18 5 -8 1 -9 -10 -5 -9 4 -15
3 -12 -2 7 -11 -22 -23 -35 -15 -5 3 -8 1 -7 -5 2 -6 -44 -37 -101 -67 -57
-31 -101 -52 -97 -45 4 6 27 20 51 31 24 11 56 31 71 45 29 27 22 34 -10 10
-10 -8 -23 -12 -27 -9 -5 3 -9 0 -9 -6 0 -6 -4 -9 -9 -6 -12 8 -42 -4 -36 -14
3 -4 -2 -11 -11 -14 -10 -4 -13 -2 -8 6 4 6 3 9 -2 6 -5 -3 -45 -22 -89 -44
-47 -23 -99 -58 -127 -86 -27 -27 -52 -48 -57 -48 -4 0 -18 -9 -31 -20 -31
-27 -35 -26 -57 12 -94 162 -153 592 -194 1413 -17 347 -46 752 -48 666 0 -40
4 -160 9 -265 6 -105 19 -366 30 -581 21 -392 37 -632 45 -671 8 -37 33 -243
45 -374 7 -69 15 -151 19 -183 10 -75 -6 -71 -33 10 -12 34 -24 65 -28 69 -5
4 -8 15 -8 24 0 9 -14 43 -30 75 -17 33 -28 65 -26 71 2 6 -1 17 -7 23 -6 6
-7 11 -3 11 5 0 4 6 -2 12 -5 7 -19 58 -31 113 -25 117 -32 146 -60 240 -112
385 -172 713 -236 1295 -64 582 -85 764 -120 1005 -19 132 -39 287 -45 345 -6
58 -17 155 -25 215 -8 61 -22 171 -29 245 -10 94 -24 161 -44 220 -17 47 -33
94 -37 105 -3 11 3 4 14 -15 27 -48 27 -23 -4 110 -14 60 -28 143 -32 184 -5
68 -4 78 20 118 14 24 74 90 133 148 59 58 139 137 176 177 38 39 91 86 118
105 50 33 61 48 37 48 -7 0 -21 6 -31 13 -18 13 -18 15 -1 47 26 50 238 257
339 330 155 114 156 115 31 71 -149 -52 -437 -167 -505 -201 -34 -17 -93 -33
-155 -43 -149 -23 -365 -50 -370 -46 -2 2 1 23 7 45 l11 41 96 11 c441 53 525
65 563 77 40 14 41 14 8 10 -19 -2 -138 -16 -265 -30 -126 -14 -259 -30 -295
-35 -83 -12 -113 -12 -106 -1 8 13 52 19 211 31 77 7 181 18 230 26 50 9 132
20 183 26 55 6 92 15 92 22 0 10 9 103 28 297 l8 77 -23 -17 c-12 -9 -20 -22
-18 -29 3 -7 1 -11 -3 -8 -13 8 -44 -22 -36 -35 4 -8 3 -10 -5 -5 -7 5 -26 -9
-49 -35 l-37 -42 -135 5 c-78 3 -116 2 -90 -3 25 -4 72 -8 105 -8 33 -1 66 -5
74 -10 18 -12 56 6 94 45 16 16 27 22 25 14 -2 -8 3 -14 10 -12 8 1 11 -2 7
-7 -3 -6 -11 -8 -18 -6 -7 3 -18 1 -26 -4 -12 -8 -12 -12 -2 -25 11 -14 11
-16 -3 -16 -10 0 -14 4 -11 10 4 6 -1 7 -11 3 -14 -5 -13 -8 6 -18 17 -9 19
-14 9 -17 -8 -3 -22 1 -31 10 -10 8 -18 11 -18 6 0 -5 9 -15 20 -22 14 -8 20
-23 20 -47 0 -25 4 -35 16 -35 8 0 13 -4 9 -9 -3 -6 3 -14 12 -20 14 -8 10
-10 -17 -5 l-35 5 30 -15 30 -15 -45 5 c-34 3 -40 2 -25 -6 18 -8 16 -10 -10
-8 -16 0 -38 -2 -47 -7 -10 -4 -41 -5 -70 -2 -29 3 -96 6 -150 6 -53 0 -99 4
-101 8 -6 9 -30 165 -31 201 -1 12 -4 22 -8 22 -10 0 -10 4 7 -115 8 -55 15
-106 15 -113 0 -10 23 -13 105 -10 58 2 105 0 105 -5 0 -15 -48 -25 -175 -36
-72 -6 -150 -14 -174 -18 l-44 -6 7 34 c16 75 36 206 36 235 0 17 6 36 13 41
11 9 182 4 410 -12 l87 -6 73 68 c39 38 87 80 106 94 46 36 61 -5 -194 529
l-84 175 -16 165 c-8 91 -24 251 -35 355 -11 105 -20 197 -20 206 0 11 19 20
69 32 100 25 106 23 120 -22 6 -21 20 -50 31 -63 14 -17 13 -11 -7 29 -28 59
-25 83 11 83 14 0 36 4 49 9 14 5 54 11 91 13 36 1 66 6 66 9 0 4 2 14 5 21 4
11 -6 15 -42 16 -26 2 -86 7 -133 12 -98 11 -198 13 -253 3 l-38 -6 3 -46 2
-46 -129 -11 c-72 -6 -159 -14 -195 -17 -36 -3 -56 -4 -45 -1 11 3 76 19 145
36 69 17 139 37 157 45 36 14 57 39 27 30 -11 -3 -86 -24 -169 -47 -181 -50
-195 -55 -195 -76 0 -15 12 -16 108 -10 59 4 133 9 165 12 42 4 57 3 57 -7 0
-7 -20 -96 -44 -198 -24 -102 -56 -244 -71 -316 -15 -71 -30 -137 -35 -145 -4
-8 -58 -38 -119 -66 -138 -62 -163 -81 -251 -195 -70 -92 -79 -116 -57 -156
13 -23 12 -233 -1 -233 -4 0 -54 72 -112 161 -58 88 -115 172 -127 187 l-22
27 -1 -24 c0 -25 -62 -91 -85 -91 -7 0 -20 -7 -28 -15 -13 -13 -17 -12 -31 10
-9 14 -16 45 -16 74 0 44 4 52 30 71 23 16 42 21 70 18 l39 -3 -30 55 c-41 73
-41 73 -85 62 -22 -6 -51 -13 -67 -16 -21 -5 -27 -12 -27 -33 0 -46 24 -193
31 -193 4 0 5 -9 2 -20 -3 -10 0 -74 6 -142 25 -276 19 -263 118 -241 38 9
125 33 195 54 70 22 132 39 138 39 6 0 10 -27 10 -67 0 -85 20 -206 65 -398
19 -82 35 -156 35 -163 0 -8 -9 -11 -23 -8 -53 11 -249 17 -243 8 5 -9 -111
-29 -118 -21 -2 2 -24 38 -51 79 -68 107 -143 197 -288 347 l-79 83 -52 -28
c-55 -29 -224 -192 -294 -284 -36 -46 -47 -74 -72 -171 -17 -64 -33 -124 -37
-133 -5 -14 -2 -16 18 -11 13 4 36 7 51 7 22 0 31 7 42 35 17 40 31 47 22 10
-5 -19 -2 -25 10 -25 11 0 15 6 11 20 -4 14 19 44 88 116 93 97 138 134 164
134 8 0 11 -6 7 -15 -4 -10 1 -15 14 -15 32 0 23 -26 -16 -49 -38 -22 -59 -27
-49 -11 3 6 0 10 -7 10 -16 0 -178 -164 -178 -180 0 -8 9 -10 23 -6 35 8 197
26 245 26 37 0 42 -3 42 -23 0 -31 -39 -67 -86 -77 -21 -5 -114 -14 -208 -21
-134 -10 -170 -11 -174 -1 -6 20 -34 44 -41 35 -9 -12 -54 -8 -59 6 -2 6 -7 9
-12 6 -10 -6 -2 31 16 72 16 36 64 78 73 64 3 -5 13 13 22 40 l16 50 -26 -24
c-14 -14 -36 -30 -47 -36 -13 -6 -38 -45 -60 -91 -36 -77 -39 -80 -71 -80 -18
0 -33 -4 -33 -10 0 -5 -18 -14 -41 -20 -23 -6 -38 -14 -35 -17 7 -7 -38 -43
-53 -43 -6 0 -11 -7 -11 -15 0 -19 -60 -21 -61 -2 0 6 -4 3 -9 -8 -8 -20 -9
-20 -9 1 -1 11 10 35 24 54 29 39 34 97 9 107 -23 9 -67 -15 -60 -32 3 -8 1
-15 -4 -15 -6 0 -10 -7 -10 -15 0 -9 -7 -18 -15 -21 -8 -3 -17 -13 -20 -23 -6
-20 -95 -97 -95 -82 0 6 27 39 60 74 33 36 60 67 60 71 0 3 -10 4 -23 1 -15
-4 -37 2 -60 15 -30 18 -39 19 -59 9 -13 -6 -27 -18 -31 -25 -4 -8 -14 -14
-21 -14 -8 0 -25 -15 -40 -34 -29 -38 -34 -55 -11 -36 9 7 15 8 15 2 0 -5 8
-9 17 -8 26 2 29 -34 4 -41 -12 -3 -21 -10 -21 -15 0 -6 -7 -8 -15 -4 -10 4
-15 -1 -15 -15 0 -15 5 -18 22 -15 13 3 113 15 223 26 110 11 250 27 310 36
133 17 576 69 775 89 270 28 515 56 537 62 16 3 23 13 23 29 0 13 -1 24 -3 24
-1 0 -57 -7 -122 -15 -152 -19 -142 -20 -147 14 -4 27 -2 29 40 35 58 8 179 8
273 0 70 -6 75 -8 89 -38 20 -42 57 -54 101 -32 20 10 121 30 239 47 113 16
211 31 218 34 24 9 11 -11 -24 -34 -54 -37 -126 -121 -162 -189 -42 -78 -58
-158 -72 -352 -18 -254 -18 -257 -49 -264 -14 -3 -141 -30 -281 -61 -558 -122
-890 -190 -1575 -320 -220 -42 -404 -80 -408 -85 -5 -4 11 -4 35 1 1034 196
1347 259 1882 375 187 40 347 76 356 79 15 5 18 -10 23 -137 4 -79 14 -176 22
-217 10 -53 12 -85 5 -110 -15 -61 -32 -237 -39 -431 -4 -102 -9 -169 -9 -150
-3 51 -18 26 -37 -63 -15 -68 -21 -80 -44 -89 -63 -25 -716 -249 -1159 -398
-265 -90 -481 -165 -479 -167 4 -3 1495 496 1594 535 29 11 54 18 56 16 2 -3
1 -25 -4 -50 -6 -33 -5 -56 7 -87 25 -67 26 -77 11 -176 -14 -92 -14 -94 9
-138 13 -24 24 -49 24 -54 0 -6 6 -17 14 -25 19 -18 10 -50 -21 -74 -14 -10
-22 -24 -18 -30 3 -5 2 -10 -3 -10 -26 0 -80 -323 -82 -490 0 -34 -2 -36 -83
-69 -45 -19 -181 -78 -302 -132 -317 -140 -889 -393 -1190 -526 -143 -63 -327
-144 -410 -181 -82 -36 -154 -70 -160 -75 -17 -15 118 44 965 418 241 106 402
176 845 368 83 36 190 84 239 106 49 23 90 41 92 41 2 0 4 -42 5 -92 0 -51 4
-145 9 -208 5 -63 17 -230 25 -370 9 -140 20 -275 25 -300 5 -25 9 -50 10 -57
0 -6 -48 -38 -107 -71 -221 -122 -1011 -563 -1313 -732 -80 -45 -238 -133
-305 -170 -359 -199 -472 -264 -485 -277 -13 -14 -13 -15 5 -9 11 4 94 49 185
100 91 51 210 118 265 148 55 31 255 142 445 248 190 106 507 282 705 392 198
110 415 232 483 270 68 39 125 69 126 67 2 -2 18 -75 35 -161 17 -86 49 -215
70 -287 21 -72 36 -132 34 -135 -7 -7 86 -24 177 -32 77 -6 89 -10 148 -50 35
-24 61 -44 58 -44 -8 0 29 -43 92 -107 28 -30 52 -55 52 -56 1 -1 3 -27 6 -57
7 -72 41 -98 92 -71 32 18 123 43 136 38 8 -3 23 1 34 9 31 21 72 35 72 24 0
-6 -9 -10 -19 -10 -11 0 -22 -4 -25 -9 -7 -10 33 -2 49 9 6 5 44 18 85 30 41
12 80 26 85 30 6 4 37 19 70 33 33 14 128 62 210 106 83 45 154 81 160 81 14
0 -16 -26 -56 -48 -19 -11 -93 -53 -165 -94 -242 -141 -415 -225 -569 -278
-207 -71 -211 -72 -222 -47 -6 14 -6 33 0 54 9 28 7 36 -19 69 -16 21 -42 64
-59 97 -35 69 -76 97 -143 97 -50 0 -103 25 -153 72 -20 19 -54 39 -76 46 -23
7 -46 19 -53 27 -7 8 -16 12 -21 9 -5 -3 -6 3 -2 13 6 16 5 16 -10 4 -15 -12
-17 -11 -17 3 0 15 -2 16 -21 3 -14 -11 -29 -13 -49 -7 -18 5 -32 4 -40 -3
-10 -9 -11 -5 -7 18 4 25 3 27 -7 13 -6 -8 -20 -18 -31 -21 -17 -4 -17 -5 -2
-6 10 -1 17 -9 17 -22 0 -14 -5 -19 -15 -16 -8 4 -17 2 -20 -3 -3 -5 -18 -5
-35 0 l-30 9 15 -29 c19 -38 117 -92 218 -121 64 -18 84 -29 113 -62 l36 -39
39 38 c21 21 41 35 45 32 6 -7 -20 -60 -42 -86 -92 -106 -125 -137 -169 -159
-27 -14 -57 -31 -65 -38 -8 -7 -39 -20 -67 -30 -91 -29 -101 -66 -51 -178 21
-48 31 -85 30 -112 -1 -22 -3 -64 -4 -93 -1 -28 -4 -52 -8 -52 -7 0 -9 9 -11
68 0 20 -6 41 -12 45 -8 5 -5 13 10 24 23 16 33 40 11 27 -6 -4 -8 -3 -5 3 4
6 0 26 -8 44 -8 19 -15 32 -15 29 -1 -3 -4 -18 -6 -35 -7 -39 -14 -45 -14 -12
0 26 -2 27 -57 27 -42 0 -65 6 -83 20 -16 13 -41 20 -69 20 -30 0 -48 6 -57
17 -7 10 -14 13 -14 7 0 -7 -11 -15 -25 -18 -14 -4 -24 -12 -22 -19 1 -7 -11
-13 -27 -15 -19 -2 -26 0 -21 8 4 6 13 9 21 6 8 -3 13 0 11 6 -1 6 10 18 24
27 43 26 227 155 317 221 45 34 87 58 92 55 6 -3 10 -1 10 5 0 6 20 25 46 43
25 17 40 33 35 35 -10 3 -195 -116 -456 -295 -71 -48 -202 -138 -290 -198 -88
-60 -209 -143 -270 -184 -60 -41 -132 -90 -160 -108 -41 -28 -46 -33 -26 -33
20 0 258 150 313 197 12 11 21 12 37 4 13 -8 22 -8 26 -1 4 6 3 10 -2 9 -32
-6 -31 5 4 31 26 19 48 28 59 24 13 -4 15 -3 7 3 -9 6 17 29 85 75 79 53 104
65 126 61 19 -4 37 1 59 17 20 15 32 19 35 12 2 -7 11 -12 20 -12 13 0 14 -2
3 -13 -11 -9 -14 -9 -18 1 -3 6 -9 12 -15 12 -6 0 -8 -7 -5 -15 7 -17 -5 -26
-41 -30 -15 -1 -39 -5 -54 -10 -18 -4 -28 -3 -28 4 0 6 -7 8 -16 4 -9 -3 -13
-12 -9 -21 3 -8 0 -20 -7 -25 -9 -6 -8 -7 5 -3 13 4 17 0 17 -18 0 -26 -57
-135 -74 -142 -6 -2 -21 -25 -31 -49 -11 -25 -23 -45 -27 -45 -5 0 -8 -5 -8
-11 0 -6 -7 -17 -15 -25 -8 -9 -15 -20 -15 -25 0 -5 153 -9 380 -9 209 0 380
2 380 5 0 15 -31 78 -45 91 -13 14 -18 14 -33 2 -15 -12 -16 -11 -3 5 13 16
12 20 -7 33 -12 8 -22 20 -22 26 0 5 23 -12 50 -38 32 -31 54 -62 61 -86 l10
-38 605 0 c422 0 612 3 626 11 33 18 70 19 116 3 40 -13 172 -20 172 -9 0 3
-30 37 -67 76 -38 39 -68 76 -68 81 0 6 22 17 49 25 43 13 50 12 65 -1 10 -9
22 -16 28 -16 5 0 39 -22 74 -48 35 -27 80 -57 99 -68 19 -10 41 -25 48 -31
16 -16 54 -26 78 -21 14 2 8 12 -27 43 -77 70 -150 147 -164 175 l-14 27 152
47 c84 26 160 50 169 52 18 5 32 -5 141 -104 180 -163 266 -167 572 -26 100
46 45 38 -81 -12 -148 -58 -229 -68 -296 -35 -38 18 -192 161 -174 161 3 0 -3
9 -14 20 -11 11 -28 20 -37 20 -16 1 -17 1 -2 10 10 6 113 42 230 81 429 143
620 237 891 440 135 101 120 108 138 -61 6 -58 22 -148 35 -200 13 -52 26
-115 30 -140 12 -83 46 -192 97 -308 41 -93 49 -122 45 -153 l-5 -39 59 0 c32
0 59 1 60 3 1 1 5 106 9 232 5 139 16 268 26 325 14 76 18 155 18 396 l1 301
-60 -34 c-78 -45 -112 -59 -155 -67 -32 -6 -33 -5 -10 6 14 6 113 58 220 115
157 83 209 116 261 166 86 82 116 103 57 41 -26 -27 -47 -52 -48 -56 0 -5 -2
-7 -4 -5 -9 5 -45 -36 -39 -46 3 -5 2 -8 -3 -4 -5 3 -45 -16 -89 -41 l-79 -47
2 -60 c3 -69 38 -348 53 -417 12 -55 9 -466 -4 -596 -5 -47 -6 -114 -2 -149
l7 -63 814 0 814 0 0 4740 0 4741 -22 42 c-21 42 -21 44 -9 322 6 154 14 299
16 322 7 63 -15 101 -30 54 -3 -11 -28 -34 -55 -50 -62 -38 -64 -48 -4 -19 39
19 46 20 55 8 5 -8 8 -26 7 -39 -3 -20 -30 -37 -173 -110 -223 -113 -341 -181
-447 -258 -49 -35 -88 -62 -88 -60 0 25 35 108 51 123 30 26 134 168 193 261
27 43 62 97 78 121 l29 42 -143 0 -143 0 -23 -127 c-12 -71 -42 -238 -67 -372
-45 -244 -52 -297 -35 -253 5 12 14 22 20 22 9 0 176 78 234 108 5 3 6 0 2 -7
-10 -15 51 -6 101 15 31 13 32 13 27 -11 -3 -16 0 -25 8 -25 18 -1 -64 -33
-232 -91 -79 -28 -152 -48 -162 -46 -12 4 -18 0 -18 -11 0 -10 -12 -52 -25
-96 -14 -43 -24 -80 -23 -81 2 -2 59 15 128 37 69 22 211 63 315 93 171 47
197 52 250 46 l60 -7 -40 -7 c-122 -21 -164 -31 -305 -71 -85 -24 -210 -60
-276 -81 l-122 -38 52 -27 c29 -16 72 -34 97 -40 24 -7 38 -15 31 -17 -18 -7
-169 42 -209 67 l-33 20 1 257 c1 196 3 251 11 228 7 -18 11 -120 11 -252 0
-123 3 -223 8 -223 5 0 9 8 9 18 0 9 11 67 25 127 14 61 34 180 45 265 20 153
76 493 85 518 5 15 8 16 -94 -49 l-73 -48 -51 26 c-28 14 -105 50 -171 79
l-121 54 -695 0 -695 -1 160 -60z m2413 -146 c-10 -2 -18 -8 -18 -13 0 -5 7
-7 15 -4 16 6 20 -4 7 -21 -11 -16 -60 -45 -74 -44 -9 0 -8 2 2 6 17 7 44 33
39 37 -4 3 -123 -59 -407 -212 -150 -81 -214 -109 -118 -53 27 16 53 36 58 45
29 51 434 266 498 264 10 0 9 -2 -2 -5z m-898 -653 c0 -268 -27 -881 -53
-1195 -2 -22 -4 104 -5 280 -2 335 13 1020 24 1140 l7 70 13 -45 c10 -31 14
-107 14 -250z m-4178 -1376 c4 -43 17 -164 28 -269 30 -281 38 -360 34 -363
-1 -2 -12 14 -23 35 -38 75 -64 81 -166 38 -36 -16 -68 -25 -71 -22 -3 3 6 52
20 109 13 57 36 156 50 221 42 192 77 321 89 329 24 15 32 -1 39 -78z m-11
-580 c12 -15 11 -18 -5 -28 -10 -6 -94 -72 -185 -146 -91 -75 -181 -147 -198
-160 -18 -13 -33 -29 -33 -36 0 -7 23 -25 52 -41 89 -48 91 -56 73 -213 -33
-279 -61 -427 -105 -541 -10 -27 -14 -51 -10 -54 5 -3 17 19 26 50 22 69 27
66 12 -8 l-12 -56 -58 -3 c-33 -2 -57 -7 -56 -13 2 -6 28 -9 60 -7 l58 3 -7
-33 c-3 -18 -12 -49 -19 -68 l-13 -35 0 52 c-1 43 -4 53 -22 58 -29 10 -67 -2
-71 -22 -4 -20 -85 310 -93 377 -3 28 15 -15 48 -115 57 -173 64 -188 77 -180
6 4 5 13 -1 23 -28 46 -132 382 -136 440 l-5 62 46 0 c43 0 46 2 46 27 0 54
-62 86 -80 41 -6 -17 -9 0 -9 60 -1 45 3 82 7 82 5 0 35 -39 68 -87 82 -122
195 -273 203 -273 9 0 28 137 37 263 9 108 0 128 -69 157 -56 25 -180 30 -217
10 -25 -13 -50 2 -50 30 0 23 121 183 162 213 35 25 68 40 68 31 0 -4 -23 -32
-52 -63 -73 -80 -148 -181 -148 -200 0 -9 7 -2 16 15 8 16 59 79 112 140 105
117 107 119 322 216 114 51 140 57 161 32z m2961 -1211 c14 -16 45 -57 68 -93
24 -36 63 -94 87 -130 59 -89 59 -131 -2 -281 -24 -61 -56 -161 -70 -223 -15
-61 -40 -167 -58 -236 -33 -135 -40 -227 -18 -253 11 -14 16 -15 40 -3 29 16
105 93 143 146 14 19 67 118 119 219 103 201 157 272 218 284 32 7 71 -6 71
-23 0 -4 -22 -25 -50 -45 -74 -54 -117 -108 -204 -256 -124 -211 -157 -259
-221 -325 -62 -63 -117 -99 -140 -91 -19 8 -38 131 -32 211 5 71 57 261 139
515 62 189 53 240 -81 490 -34 62 -61 114 -61 117 0 13 30 0 52 -23z m926
-325 c38 -17 86 -51 112 -78 102 -104 278 -513 365 -845 73 -276 185 -821 290
-1400 127 -707 166 -910 176 -913 5 -2 9 -15 9 -30 0 -14 9 -59 21 -100 31
-109 13 -128 -21 -22 -19 58 -25 89 -18 97 6 8 3 21 -11 40 -34 46 -104 369
-186 858 -116 692 -239 1285 -317 1535 -29 94 -83 248 -104 300 -32 75 -155
312 -186 358 -37 54 -113 114 -215 169 -51 28 -70 43 -55 43 12 0 22 -3 22 -8
0 -12 103 -33 113 -23 6 6 1 8 -13 4 -16 -4 -21 -3 -16 5 4 6 -5 18 -21 26
-51 27 -12 17 55 -16z m-118 -370 c-1 -7 -23 -42 -50 -78 -28 -36 -78 -121
-112 -190 -129 -258 -267 -485 -315 -517 -15 -10 -75 -65 -135 -122 -59 -58
-108 -102 -108 -97 0 4 54 73 121 154 66 81 135 170 154 197 44 67 242 410
301 522 25 48 59 100 75 116 30 28 69 36 69 15z m120 -323 c0 -19 -8 -56 -18
-83 -22 -58 -184 -344 -261 -462 -129 -198 -322 -455 -373 -498 -15 -13 -27
-26 -26 -30 1 -4 -38 -47 -86 -96 -99 -99 -104 -96 -13 6 33 37 64 65 70 61 6
-3 7 -1 3 5 -4 6 30 57 77 114 95 117 201 258 274 368 95 143 226 421 204 435
-5 3 -31 -22 -57 -55 -26 -33 -51 -60 -55 -60 -12 0 8 44 48 108 34 53 189
222 204 222 5 0 9 -16 9 -35z m-475 -2641 c-45 -65 -151 -165 -200 -188 -44
-21 -114 -34 -154 -28 -28 4 -23 7 50 32 99 35 162 76 259 171 41 41 77 73 79
72 2 -2 -13 -28 -34 -59z"/>
<path d="M50 10211 c0 -5 15 -19 33 -33 22 -16 92 -39 227 -72 107 -27 220
-58 250 -68 30 -11 84 -28 120 -37 48 -13 65 -22 64 -34 -2 -49 -5 -57 -21
-58 -22 0 60 -34 103 -42 31 -6 32 -5 41 44 l10 49 -51 57 c-28 32 -65 73 -82
92 l-32 35 -63 -13 c-35 -7 -84 -21 -108 -32 -24 -10 -52 -19 -62 -19 -11 0
-94 19 -184 41 -109 28 -165 46 -165 55 0 7 -10 20 -22 28 -24 17 -58 21 -58
7z"/>
<path d="M4062 10080 c-14 -18 -20 -35 -15 -42 12 -21 9 -42 -9 -60 -10 -10
-18 -25 -18 -33 0 -26 -49 -125 -64 -131 -9 -3 -28 5 -45 18 -15 14 -43 31
-61 38 -29 12 -34 12 -46 -5 -15 -21 -26 -15 -81 42 -40 41 -54 41 -77 2 -15
-26 -16 -33 -5 -40 10 -6 11 -9 2 -9 -29 0 -10 -21 47 -51 56 -30 59 -33 53
-63 -3 -17 -12 -36 -20 -43 -8 -6 -32 -28 -54 -47 -41 -38 -55 -45 -46 -22 3
8 -14 -4 -38 -27 -24 -23 -45 -53 -47 -67 -1 -13 -13 -29 -24 -35 -34 -17 -54
-36 -54 -52 0 -7 -10 -27 -22 -43 -17 -24 -19 -34 -11 -52 l11 -23 11 25 c10
20 117 95 183 127 24 12 131 14 164 2 24 -7 82 -12 148 -11 60 1 114 -2 120
-6 27 -21 118 -41 186 -42 58 -1 95 -15 149 -59 41 -34 44 -34 57 -16 16 22
19 12 4 -16 -8 -14 -8 -24 0 -37 11 -16 11 -16 6 1 -8 24 1 21 43 -15 59 -52
73 -95 50 -155 -8 -22 -12 -24 -19 -13 -8 12 -10 12 -10 -3 0 -14 5 -17 20
-12 11 4 20 2 20 -4 0 -23 -49 -15 -72 11 -10 12 -18 17 -18 13 0 -5 8 -17 17
-28 10 -10 18 -35 19 -56 1 -20 -1 -30 -3 -23 -9 24 -23 12 -24 -20 -1 -27 -2
-28 -6 -8 -8 48 -13 57 -24 38 -5 -9 -32 -30 -59 -45 -36 -20 -48 -33 -44 -45
4 -12 0 -15 -16 -11 -11 3 -20 1 -20 -5 0 -6 -9 -8 -20 -5 -16 4 -20 0 -20
-20 0 -15 -9 -32 -21 -40 -17 -12 -19 -19 -10 -35 14 -26 14 -62 1 -62 -17 0
19 -46 45 -58 14 -6 25 -18 25 -27 0 -8 9 -15 21 -15 21 0 54 -15 76 -34 7 -6
19 -17 28 -24 8 -7 15 -26 15 -41 0 -16 7 -46 16 -67 15 -36 15 -61 -2 -128
-5 -22 -4 -27 6 -21 9 6 10 1 5 -16 -16 -50 -23 -65 -43 -82 -20 -18 -22 -18
-51 -1 -17 10 -35 31 -42 46 -18 44 -33 47 -25 6 5 -30 2 -41 -19 -66 -14 -17
-30 -44 -36 -60 -5 -16 -21 -35 -34 -42 -14 -7 -25 -21 -25 -31 0 -16 -8 -18
-62 -16 -41 2 -73 9 -90 20 -22 15 -31 16 -48 7 -18 -10 -25 -8 -42 10 -15 16
-23 18 -33 10 -10 -8 -20 1 -43 39 -43 69 -43 81 -3 105 19 12 50 36 68 53 34
32 36 33 149 37 133 5 149 12 139 65 -13 76 -24 91 -96 123 -42 19 -71 38 -75
50 -11 34 -166 177 -205 189 -41 13 -170 8 -279 -11 -62 -10 -176 -51 -250
-89 -31 -16 -41 -54 -36 -127 7 -87 25 -132 65 -162 17 -12 31 -31 31 -42 0
-40 22 -70 58 -76 24 -5 54 -25 96 -65 34 -33 75 -64 92 -69 17 -6 48 -19 69
-30 22 -11 44 -20 50 -20 5 0 28 -14 49 -30 22 -17 50 -30 62 -30 13 0 25 -4
29 -10 3 -5 13 -6 21 -3 21 8 62 -16 70 -41 14 -40 10 -66 -8 -66 -9 0 -19 -4
-22 -9 -6 -10 -100 -3 -136 10 -14 4 -41 11 -60 14 -19 4 -39 10 -45 16 -5 5
-18 9 -28 9 -33 0 -90 33 -137 78 -62 60 -127 104 -148 100 -27 -5 -20 -25 18
-50 19 -13 45 -38 57 -57 l23 -33 -33 -35 c-32 -34 -33 -34 -97 -28 -151 14
-163 18 -175 56 -4 11 -14 19 -23 17 -9 -1 -32 3 -49 11 -18 7 -41 11 -51 9
-10 -3 -24 2 -31 10 -12 13 -17 10 -32 -19 -32 -60 -19 -111 48 -181 34 -35
36 -39 29 -90 -4 -29 -17 -73 -28 -98 -30 -66 -26 -139 12 -216 16 -34 30 -71
30 -82 0 -12 9 -45 20 -73 12 -29 25 -73 31 -99 11 -51 15 -53 79 -36 29 8 80
-8 80 -24 0 -19 -40 -50 -64 -50 -13 0 -35 -9 -49 -20 -32 -25 -35 -25 -39 3
-2 13 -7 0 -12 -30 -4 -29 -13 -53 -19 -53 -7 0 -5 -6 4 -13 9 -7 15 -20 13
-29 -1 -9 4 -22 12 -29 8 -6 14 -18 14 -25 0 -8 9 -19 20 -26 11 -7 20 -19 20
-26 0 -7 14 -18 30 -23 17 -6 30 -17 30 -25 0 -8 9 -14 20 -14 11 0 28 -4 38
-10 34 -19 127 -41 130 -30 2 5 10 10 18 10 8 0 28 7 44 15 25 13 29 13 24 1
-3 -8 -1 -17 5 -21 7 -4 11 6 11 25 0 24 5 33 21 37 12 4 42 17 66 30 24 12
45 23 47 23 1 0 0 -17 -3 -37 l-5 -38 -7 30 c-9 35 -5 -31 12 -211 6 -67 9
-127 6 -135 -3 -8 -6 5 -6 29 -1 23 -5 42 -11 42 -5 0 -10 -4 -10 -8 0 -5 -25
-40 -55 -78 -83 -103 -99 -152 -99 -304 0 -69 7 -195 17 -281 13 -119 36 -537
37 -661 0 -10 21 5 58 44 96 102 420 379 544 468 26 18 45 37 41 43 -3 6 -1 7
5 3 15 -9 64 23 55 37 -4 6 -1 7 6 3 16 -11 140 72 215 143 140 133 361 456
422 618 37 96 37 160 0 208 -16 21 -42 43 -57 48 -15 6 -33 22 -39 35 l-11 25
79 -5 c101 -6 138 -28 188 -111 65 -108 58 -107 87 -15 84 267 115 490 118
835 1 158 2 175 21 199 12 15 23 47 26 75 4 38 8 49 22 49 35 0 42 86 11 126
-18 23 -18 28 -5 59 8 19 14 55 14 80 0 38 3 45 20 45 26 0 38 45 17 68 -17
20 -31 72 -32 122 -1 19 -8 60 -17 90 -16 51 -22 89 -19 116 1 6 19 19 41 29
41 18 54 45 23 45 -10 0 -35 -4 -55 -9 -36 -8 -38 -7 -38 14 0 13 -3 30 -6 39
-8 20 26 33 121 49 61 11 70 15 67 32 -6 33 -22 45 -61 45 -43 0 -121 -34
-121 -52 -1 -33 -39 38 -45 84 -4 29 -11 63 -16 76 -8 19 -6 21 9 14 22 -12
42 -5 42 15 0 13 -34 70 -50 83 -3 3 -22 27 -42 53 -20 26 -48 57 -61 67 -14
11 -64 67 -112 125 -109 131 -282 288 -372 338 -37 21 -109 53 -159 70 -89 31
-90 33 -83 59 4 15 5 29 2 32 -3 3 7 11 23 17 45 17 154 4 217 -25 68 -33 75
-32 111 4 16 17 33 30 37 30 4 0 16 19 27 42 22 43 16 78 -12 78 -19 0 -147
-59 -171 -78 -11 -9 -17 -13 -13 -9 13 17 -13 65 -40 72 -14 3 -31 13 -37 22
-11 14 -14 14 -37 -1 -15 -10 -29 -24 -32 -32 -3 -8 -14 -14 -25 -14 -29 0
-133 -52 -182 -91 -33 -26 -41 -29 -35 -14 4 11 10 35 13 53 3 19 12 36 19 39
8 3 14 20 14 41 0 19 6 43 14 51 22 25 25 101 4 114 -14 10 -24 5 -55 -24 -40
-38 -83 -69 -95 -69 -3 0 -21 23 -39 50 -18 28 -37 50 -43 49 -6 0 -21 -13
-34 -29z m1108 -1734 c14 -6 35 -31 48 -56 50 -99 13 -264 -96 -428 -38 -57
-131 -128 -182 -138 -50 -11 -34 10 28 33 88 35 124 70 180 180 79 154 101
270 64 343 -9 19 -28 41 -42 48 -32 17 -115 11 -159 -11 -19 -9 -41 -17 -50
-17 -30 0 14 31 70 50 54 19 92 18 139 -4z m-53 -183 c26 -170 14 -245 -47
-281 -47 -29 -213 -67 -236 -54 -21 12 -19 13 90 32 87 15 127 39 154 90 27
53 28 111 6 214 -9 41 -14 82 -10 92 13 33 29 -3 43 -93z m-1562 -336 c33 -15
45 -30 68 -77 43 -92 37 -102 -24 -38 -35 37 -41 40 -54 27 -8 -8 -16 -28 -17
-44 -4 -57 -36 -62 -79 -13 -20 22 -33 24 -25 3 8 -21 -8 -19 -29 5 -17 19
-17 21 1 37 11 10 31 34 44 53 24 36 61 71 70 67 3 -1 23 -10 45 -20z m267
-1067 c32 -33 32 -35 7 -132 -10 -38 -9 -54 3 -92 8 -25 12 -46 7 -46 -15 0
-68 122 -85 196 -16 72 -16 76 2 89 27 20 32 19 66 -15z m-75 -555 c46 -162
48 -224 12 -281 l-27 -40 -68 4 c-88 6 -100 12 -108 62 -6 37 -4 43 28 70 48
42 65 84 87 218 22 132 31 160 36 122 2 -14 20 -83 40 -155z m173 -320 c32
-19 58 -18 94 0 37 19 41 14 22 -23 -31 -61 -98 -122 -134 -122 -13 0 -32 71
-32 119 0 45 9 49 50 26z"/>
<path d="M896 9940 c5 -4 200 -56 434 -114 521 -131 776 -197 1213 -315 186
-51 343 -91 348 -89 10 3 -298 88 -801 220 -425 112 -1202 306 -1194 298z"/>
<path d="M3143 8730 c-17 -44 -26 -77 -22 -74 5 3 9 0 9 -6 0 -7 -9 -14 -20
-17 -21 -5 -60 -77 -60 -109 0 -10 14 -57 30 -104 39 -112 39 -138 0 -151 -39
-14 -38 -26 3 -35 57 -14 88 -10 99 11 6 11 32 52 57 90 56 86 57 120 11 241
-34 86 -59 111 -94 92 -26 -15 -28 -6 -7 38 18 38 36 104 29 104 -3 0 -18 -36
-35 -80z"/>
<path d="M167 8663 c-4 -3 -7 -15 -7 -25 0 -10 -7 -18 -16 -18 -14 0 -14 -3
-4 -15 10 -13 10 -19 -5 -35 -20 -22 -43 -16 -24 6 10 12 9 13 -5 8 -9 -4 -16
-3 -15 2 7 38 -25 48 -37 12 -4 -13 -17 -37 -30 -54 -23 -29 -24 -39 -24 -166
l0 -136 58 -6 c62 -7 283 -75 294 -91 4 -5 4 -12 -1 -15 -4 -3 -8 -15 -8 -28
-2 -24 -25 -52 -42 -52 -6 0 -11 -5 -11 -10 0 -6 -8 -13 -18 -17 -9 -4 -31
-19 -49 -34 -22 -19 -39 -26 -55 -22 -32 8 -58 32 -51 49 3 8 -2 16 -10 20
-26 9 -103 -49 -90 -69 2 -4 0 -14 -7 -22 -21 -26 4 -52 57 -58 34 -4 52 -12
65 -29 10 -12 22 -28 27 -34 6 -7 7 -15 4 -18 -4 -3 1 -6 9 -6 9 0 18 -7 22
-15 4 -11 -8 -8 -45 11 -28 14 -73 28 -100 31 l-49 6 0 -147 0 -146 35 0 c35
0 108 30 120 50 9 14 67 12 88 -4 20 -15 22 -35 6 -70 -15 -32 -59 -47 -127
-44 -47 2 -55 -1 -87 -32 l-35 -34 0 -163 0 -163 28 0 c15 0 115 -5 222 -10
260 -14 332 -35 310 -94 -6 -19 -7 -19 -12 2 -4 13 -21 28 -43 38 -40 17 -237
33 -402 34 l-103 0 0 -144 0 -143 41 20 c35 17 43 18 65 6 26 -13 54 -56 54
-82 0 -7 14 -26 31 -43 17 -16 45 -56 61 -89 17 -33 36 -64 42 -70 7 -5 29
-35 49 -66 43 -63 62 -145 41 -173 -10 -15 -13 -11 -22 31 -6 26 -19 68 -30
93 l-19 44 -6 -48 c-4 -27 -23 -80 -43 -119 -19 -38 -55 -115 -80 -171 l-44
-101 113 115 c62 63 158 167 213 230 186 211 351 358 490 435 40 22 57 27 86
21 54 -10 78 -34 85 -84 4 -31 13 -48 32 -61 l26 -19 -32 202 c-18 110 -44
260 -59 331 -15 74 -30 192 -35 275 -13 230 -61 377 -180 555 -84 125 -255
295 -349 347 -83 46 -226 87 -312 90 -38 2 -68 5 -68 8 0 2 12 14 27 26 27 21
27 23 10 42 -16 17 -16 21 -2 32 8 7 15 18 15 25 0 7 7 15 15 19 16 6 21 46 6
46 -5 0 -11 9 -14 20 -5 19 -27 27 -40 13z"/>
<path d="M4406 5712 c-3 -5 -14 -34 -26 -65 -20 -54 -24 -58 -83 -84 -134 -58
-514 -254 -542 -279 l-30 -26 33 22 c43 29 486 244 534 259 54 18 81 43 107
100 21 43 29 52 59 57 47 9 221 -3 237 -16 7 -6 17 -10 21 -9 16 4 188 -14
217 -22 21 -6 33 -4 44 6 8 8 11 15 6 15 -4 0 -105 11 -223 25 -220 25 -345
31 -354 17z"/>
<path d="M2647 5173 c-68 -178 -102 -331 -113 -505 -7 -126 14 -511 28 -502 4
3 8 122 8 265 0 341 21 513 90 736 11 36 19 68 17 70 -2 2 -15 -27 -30 -64z"/>
<path d="M2698 4839 c-25 -14 -48 -101 -48 -180 0 -86 12 -119 43 -119 33 0
52 25 72 94 21 71 16 147 -12 184 -23 31 -32 35 -55 21z"/>
<path d="M5463 898 c-4 -7 -8 -17 -8 -23 -1 -5 -5 -9 -10 -8 -6 1 -11 -17 -12
-39 -1 -22 -7 -46 -12 -51 -6 -6 -11 -17 -11 -25 0 -7 -9 -34 -21 -60 -64
-146 -135 -252 -211 -316 -58 -48 -30 -46 35 3 83 62 162 162 174 222 3 16 9
29 13 29 8 0 26 42 40 95 43 157 51 216 23 173z"/>
</g>
</svg>
